<?xml version="1.0" encoding="UTF-8"?>
<svg version="1.1" xmlns="http://www.w3.org/2000/svg" width="130" height="120">
<path d="M0 0 C4.1251961 3.98930728 6.70880963 7.03059741 7 13 C8.175625 13.04125 9.35125 13.0825 10.5625 13.125 C15.65746005 13.77542043 18.74448551 16.10716256 22 20 C23.30940756 22.32164462 24.13616965 24.4593225 25 27 C27.97 27.33 30.94 27.66 34 28 C34.38218767 29.65614657 34.71395102 31.32457024 35 33 C32.64044489 35.35955511 26.73247174 34.18542405 23.5625 34.1875 C22.58216797 34.19974609 21.60183594 34.21199219 20.59179688 34.22460938 C19.65529297 34.22654297 18.71878906 34.22847656 17.75390625 34.23046875 C16.89095947 34.23457764 16.0280127 34.23868652 15.13891602 34.24291992 C13 34 13 34 11 32 C11.375 29.875 11.375 29.875 12 28 C13.98 27.67 15.96 27.34 18 27 C16.19587357 23.73539027 15.16605307 22.11070205 12 20 C9.71351152 19.75892674 9.71351152 19.75892674 7.3125 19.875 C6.10013672 19.90207031 6.10013672 19.90207031 4.86328125 19.9296875 C4.24839844 19.95289062 3.63351563 19.97609375 3 20 C2.82984375 19.41992188 2.6596875 18.83984375 2.484375 18.2421875 C0.41868569 11.58363579 -1.91620923 5.89537683 -8 2 C-14.37299484 0.31334475 -19.33374483 0.713572 -25 4 C-27.55254329 6.20760501 -29.1198074 8.1797111 -31 11 C-32.98828125 11.37109375 -32.98828125 11.37109375 -35.3125 11.4375 C-39.65913363 11.78047109 -41.93123173 12.73943371 -45 16 C-45.495 17.485 -45.495 17.485 -46 19 C-43.36 19.33 -40.72 19.66 -38 20 C-37.505 21.485 -37.505 21.485 -37 23 C-34.41136928 23.88312669 -31.9410998 24.55662589 -29.28515625 25.171875 C-27.53987858 25.60350497 -25.79529295 26.03793918 -24.05126953 26.47460938 C-23.08666809 26.71429443 -22.12206665 26.95397949 -21.12823486 27.20092773 C-15.30755365 28.68775501 -9.52932963 30.32779986 -3.74609375 31.953125 C-2.50260162 32.30161499 -1.2591095 32.65010498 0.02206421 33.00915527 C3.21873892 33.90559285 6.41497503 34.80357449 9.61108398 35.70202637 C12.24841084 36.44260939 14.88648294 37.18051928 17.52453709 37.91850662 C20.68485845 38.80315245 23.84433965 39.69078795 27.00390625 40.578125 C28.18078506 40.90725891 29.35766388 41.23639282 30.57020569 41.57550049 C31.64991135 41.87961853 32.729617 42.18373657 33.84204102 42.49707031 C34.79289078 42.76400696 35.74374054 43.0309436 36.72340393 43.30596924 C39 44 39 44 41 45 C41.02487171 49.98046512 41.04294081 54.96089342 41.05493164 59.94140625 C41.05993487 61.63281891 41.06673952 63.32422731 41.07543945 65.015625 C41.08768185 67.45834411 41.09326855 69.90100562 41.09765625 72.34375 C41.10281754 73.08991577 41.10797882 73.83608154 41.11329651 74.6048584 C41.11380863 79.48760846 40.76268506 84.17289633 40 89 C38.29467959 90.70532041 35.98605415 90.47288353 33.65234375 90.75390625 C32.57275391 90.88603516 31.49316406 91.01816406 30.38085938 91.15429688 C29.24455078 91.28900391 28.10824219 91.42371094 26.9375 91.5625 C25.79732422 91.70107422 24.65714844 91.83964844 23.48242188 91.98242188 C20.65538864 92.32545101 17.82793047 92.66446143 15 93 C15.89307861 93.03758423 15.89307861 93.03758423 16.80419922 93.07592773 C19.49469136 93.19177494 22.1848234 93.31455196 24.875 93.4375 C25.81214844 93.47681641 26.74929687 93.51613281 27.71484375 93.55664062 C28.61074219 93.59853516 29.50664063 93.64042969 30.4296875 93.68359375 C31.25710449 93.72025146 32.08452148 93.75690918 32.93701172 93.79467773 C35 94 35 94 37 95 C36.67 96.65 36.34 98.3 36 100 C24.62018175 100.12818318 13.35267742 99.79568202 2 99 C1.67 97.35 1.34 95.7 1 94 C0.32646484 94.03029297 -0.34707031 94.06058594 -1.04101562 94.09179688 C-4.19386112 94.23149351 -7.34691809 94.3657491 -10.5 94.5 C-12.08748047 94.57154297 -12.08748047 94.57154297 -13.70703125 94.64453125 C-17.13753687 94.7883249 -20.56809456 94.89522152 -24 95 C-25.19052979 95.05599365 -26.38105957 95.1119873 -27.60766602 95.16967773 C-38.67099638 95.48293158 -49.10736794 93.72319387 -59.95092773 91.63696289 C-62.98229663 91.05388343 -66.01693307 90.49114233 -69.05273438 89.93164062 C-70.98198385 89.57145159 -72.91102897 89.21016587 -74.83984375 88.84765625 C-75.74693588 88.6778273 -76.65402802 88.50799835 -77.58860779 88.33302307 C-83.88203254 87.11796746 -83.88203254 87.11796746 -85 86 C-85.1008979 84.30320187 -85.13082394 82.60213795 -85.1328125 80.90234375 C-85.13490723 79.80519043 -85.13700195 78.70803711 -85.13916016 77.57763672 C-85.1344873 76.3763916 -85.12981445 75.17514648 -85.125 73.9375 C-85.12161621 72.70789551 -85.11823242 71.47829102 -85.11474609 70.21142578 C-85.06497997 60.9792316 -84.92431377 51.74919653 -84.68060303 42.52005005 C-84.64355109 41.09066276 -84.60957193 39.6611925 -84.57867432 38.23165894 C-84.53371034 36.2245054 -84.47421899 34.21769316 -84.4140625 32.2109375 C-84.3826416 31.05899902 -84.3512207 29.90706055 -84.31884766 28.72021484 C-84 26 -84 26 -82 24 C-79.8359375 23.5859375 -79.8359375 23.5859375 -77.375 23.375 C-76.55773437 23.30023437 -75.74046875 23.22546875 -74.8984375 23.1484375 C-74.27195312 23.09945313 -73.64546875 23.05046875 -73 23 C-73.2784375 21.7934375 -73.2784375 21.7934375 -73.5625 20.5625 C-73.706875 19.716875 -73.85125 18.87125 -74 18 C-73 17 -73 17 -71.06640625 16.8671875 C-64.98782997 16.88615342 -59.0355601 17.28086943 -53 18 C-52.67128906 17.20335937 -52.67128906 17.20335937 -52.3359375 16.390625 C-50.0791753 11.36336611 -48.16479316 8.43622319 -43 6 C-40.63332873 5.67672787 -38.34150791 5.50124501 -35.953125 5.46875 C-34.98632812 5.23671875 -34.98632812 5.23671875 -34 5 C-32.83231696 3.11261616 -32.83231696 3.11261616 -32 1 C-22.59011033 -7.41937497 -9.95014394 -8.36716649 0 0 Z M-78 30 C-79.16527635 40.54624059 -79.33346301 51.08916393 -79.5625 61.6875 C-79.60578082 63.56446097 -79.64939784 65.44141422 -79.69335938 67.31835938 C-79.79945023 71.87882646 -79.90098746 76.43937398 -80 81 C-79.34 81 -78.68 81 -78 81 C-77.85424918 76.59336361 -77.7120371 72.1866296 -77.57275391 67.77978516 C-77.52516453 66.2885448 -77.47669764 64.79733211 -77.42724609 63.30615234 C-77.08177278 52.86439756 -76.95272442 42.44790376 -77 32 C-72.05 31.67 -67.1 31.34 -62 31 C-62 30.67 -62 30.34 -62 30 C-67.28 30 -72.56 30 -78 30 Z M-61 30 C-60.67 30.66 -60.34 31.32 -60 32 C-53.07 32 -46.14 32 -39 32 C-39 33.65 -39 35.3 -39 37 C-49.89 37 -60.78 37 -72 37 C-72.33 51.85 -72.66 66.7 -73 82 C-65.9771875 83.485 -65.9771875 83.485 -58.8125 85 C-57.34401611 85.31324219 -55.87553223 85.62648437 -54.36254883 85.94921875 C-53.19747803 86.19285156 -52.03240723 86.43648437 -50.83203125 86.6875 C-49.64327393 86.93886719 -48.4545166 87.19023438 -47.22973633 87.44921875 C-44.39806906 87.93211552 -41.86142889 88.11323049 -39 88 C-38.00909719 78.78106495 -37.91908613 69.66264189 -38.03710938 60.40014648 C-38.07719246 55.90197676 -38.00693605 51.51525144 -37.5 47.04296875 C-36.93924864 41.38726558 -37 35.68343386 -37 30 C-44.92 30 -52.84 30 -61 30 Z M-32 31 C-33.00261123 50.34559699 -33.11673102 69.63522238 -33 89 C-32.01 88.505 -32.01 88.505 -31 88 C-30.17252051 68.9789754 -29.86378052 50.03719568 -30 31 C-30.66 31 -31.32 31 -32 31 Z M-24 33 C-25.01601089 40.84633617 -25.32229549 48.65794656 -25.5625 56.5625 C-25.58367889 57.2245343 -25.60485779 57.8865686 -25.62667847 58.56866455 C-25.94061012 68.38240877 -26.14115739 78.18171946 -26 88 C-25.34 88 -24.68 88 -24 88 C-23.06386807 76.02555163 -22.70188969 64.06795017 -22.4375 52.0625 C-22.39417559 50.20376913 -22.35055761 48.34504509 -22.30664062 46.48632812 C-22.20105229 41.99095662 -22.09940308 37.49551236 -22 33 C-22.66 33 -23.32 33 -24 33 Z M-17 35 C-18.30414894 52.65258746 -18.09955063 70.31215037 -18 88 C-17.34 88 -16.68 88 -16 88 C-15.21455529 70.3233162 -14.85661431 52.6937947 -15 35 C-15.66 35 -16.32 35 -17 35 Z M-9 37 C-10.15949588 40.47848763 -10.21114292 43.35058352 -10.31640625 47.01953125 C-10.33718735 47.71455246 -10.35796844 48.40957367 -10.37937927 49.12565613 C-10.4226259 50.60250834 -10.46367003 52.07942644 -10.50268555 53.55639648 C-10.56127479 55.76628703 -10.62667045 57.9758876 -10.69335938 60.18554688 C-10.95292888 69.12656744 -11.05596935 78.05467627 -11 87 C-10.34 87.33 -9.68 87.66 -9 88 C-7.6419245 77.47070439 -7.88798153 66.90478013 -7.9375 56.3125 C-7.94252509 54.43554807 -7.94708621 52.55859484 -7.95117188 50.68164062 C-7.96209742 46.12106113 -7.97930643 41.56054521 -8 37 C-8.33 37 -8.66 37 -9 37 Z M-2 39 C-2.87946055 49.83610406 -3.12621666 60.57080422 -3.0625 71.4375 C-3.05746574 72.95898287 -3.0529063 74.48046739 -3.04882812 76.00195312 C-3.03799622 79.66800397 -3.02084235 83.33399074 -3 87 C-2.34 87 -1.68 87 -1 87 C-0.2786989 70.98941769 0.14453125 55.02691023 0 39 C-0.66 39 -1.32 39 -2 39 Z M5 41 C4.67 55.85 4.34 70.7 4 86 C4.66 86 5.32 86 6 86 C6.74499124 80.03749228 7.13948003 74.25072324 7.09765625 68.24609375 C7.0962413 67.45977066 7.09482635 66.67344757 7.09336853 65.86329651 C7.08783672 63.38798985 7.07529775 60.91277863 7.0625 58.4375 C7.05747616 56.74414194 7.05291481 55.05078245 7.04882812 53.35742188 C7.03788978 49.2382453 7.02067362 45.11913875 7 41 C6.34 41 5.68 41 5 41 Z M13 43 C12.00562904 52.43026894 11.87917019 61.78296257 11.9375 71.25 C11.94253077 72.68880051 11.94709086 74.12760274 11.95117188 75.56640625 C11.96203936 79.04430751 11.97921472 82.52214217 12 86 C12.66 86 13.32 86 14 86 C14.33 72.14 14.66 58.28 15 44 C14.34 43.67 13.68 43.34 13 43 Z M20 45 C19.20468835 58.34987408 18.87196123 71.62706162 19 85 C19.66 85.33 20.32 85.66 21 86 C22.26172899 72.34628986 22.10117918 58.69966067 22 45 C21.34 45 20.68 45 20 45 Z M27 47 C27 59.54 27 72.08 27 85 C27.33 85 27.66 85 28 85 C28.89663672 80.41443228 29.11633191 76.0829778 29.09765625 71.4140625 C29.0962413 70.71227875 29.09482635 70.010495 29.09336853 69.28744507 C29.0878129 67.06658496 29.07526892 64.84582916 29.0625 62.625 C29.05747926 61.11067855 29.05291736 59.5963555 29.04882812 58.08203125 C29.03785807 54.38798748 29.02062449 50.69400394 29 47 C28.34 47 27.68 47 27 47 Z M35 49 C33.62682912 50.14588101 33.62682912 50.14588101 33.88647461 53.23461914 C33.88663369 54.66814126 33.89232593 56.10166912 33.90234375 57.53515625 C33.9037587 58.28840683 33.90517365 59.04165741 33.90663147 59.81773376 C33.91224624 62.2326956 33.92480117 64.64756601 33.9375 67.0625 C33.9425131 68.69596221 33.94707634 70.32942586 33.95117188 71.96289062 C33.96222046 75.97529585 33.97949494 79.98763241 34 84 C34.33 84 34.66 84 35 84 C35.71125207 72.31514456 36.14534014 60.70795574 36 49 C35.67 49 35.34 49 35 49 Z " fill="#B59E35" transform="translate(85,7)"/>
<path d="M0 0 C0.66 0 1.32 0 2 0 C2.06667354 13.07264462 1.87742961 26.12058295 1.5 39.1875 C1.45158343 40.93163399 1.40340549 42.67577463 1.35546875 44.41992188 C1.23971117 48.6133624 1.12079064 52.80670156 1 57 C1.99 56.505 1.99 56.505 3 56 C3.03758423 54.75126099 3.03758423 54.75126099 3.07592773 53.47729492 C3.17112694 50.38537167 3.27035672 47.29361148 3.37231445 44.2019043 C3.43687006 42.20696681 3.4967783 40.21188071 3.55664062 38.21679688 C3.59853516 36.96318359 3.64042969 35.70957031 3.68359375 34.41796875 C3.72025146 33.26063232 3.75690918 32.1032959 3.79467773 30.91088867 C4 28 4 28 5 25 C5.66 25 6.32 25 7 25 C7 19.72 7 14.44 7 9 C7.66 9 8.32 9 9 9 C9.0246985 12.95099928 9.04285923 16.90196874 9.05493164 20.85302734 C9.06244036 22.85906551 9.0751447 24.86508202 9.08789062 26.87109375 C9.09111328 28.12792969 9.09433594 29.38476562 9.09765625 30.6796875 C9.10289307 31.84226074 9.10812988 33.00483398 9.11352539 34.20263672 C9 37 9 37 8 39 C8.66 39.33 9.32 39.66 10 40 C9.505 40.495 9.505 40.495 9 41 C8.76321284 43.69235776 8.57801975 46.36498156 8.4375 49.0625 C8.39431641 49.82111328 8.35113281 50.57972656 8.30664062 51.36132812 C8.20026367 53.24065438 8.09960066 55.12030244 8 57 C9.65 57 11.3 57 13 57 C13.33 56.01 13.66 55.02 14 54 C14.33 54.99 14.66 55.98 15 57 C16.258125 56.814375 17.51625 56.62875 18.8125 56.4375 C21.82744268 55.99267239 23.00468461 56.00156154 26 57 C27.34136367 56.34964186 28.67532254 55.6837045 30 55 C30.99 55.495 30.99 55.495 32 56 C32.66 55.67 33.32 55.34 34 55 C34.03758423 54.00202393 34.03758423 54.00202393 34.07592773 52.98388672 C34.19251136 49.94742513 34.31495351 46.91122654 34.4375 43.875 C34.47681641 42.82828125 34.51613281 41.7815625 34.55664062 40.703125 C34.88744206 32.66210554 34.88744206 32.66210554 35.53125 28.875 C36.22388155 24.62685984 36.10455021 20.42059082 36.0625 16.125 C36.05798828 15.24585938 36.05347656 14.36671875 36.04882812 13.4609375 C36.03712337 11.30726197 36.01919069 9.15362183 36 7 C34.35 7 32.7 7 31 7 C31 21.85 31 36.7 31 52 C30.01 51.34 29.02 50.68 28 50 C27.67467684 46.89531866 27.53488794 43.98063188 27.5234375 40.87109375 C27.50785797 39.96625748 27.49227844 39.0614212 27.47622681 38.12916565 C27.42858787 35.23195268 27.4009025 32.33498212 27.375 29.4375 C27.3385682 26.53661766 27.29799896 23.63587452 27.25234985 20.73512268 C27.22502525 18.92786262 27.20371695 17.12050026 27.18881226 15.31309509 C27.5364185 11.33818511 27.5364185 11.33818511 26 8 C25.67 18.89 25.34 29.78 25 41 C24.34 41 23.68 41 23 41 C23 44.3 23 47.6 23 51 C22.01 51 21.02 51 20 51 C20.11728874 43.89741338 20.24212465 36.79498875 20.37231445 29.69262695 C20.41573878 27.27436361 20.45740812 24.8560681 20.49731445 22.43774414 C20.55483603 18.97011604 20.61858187 15.50265097 20.68359375 12.03515625 C20.70030624 10.94662857 20.71701874 9.85810089 20.73423767 8.73658752 C20.75418289 7.73562546 20.77412811 6.73466339 20.79467773 5.70336914 C20.81022202 4.81734512 20.8257663 3.93132111 20.84178162 3.01844788 C21 1 21 1 22 0 C27.98721 -0.56334799 33.26686324 0.3321784 39 2 C39 2.66 39 3.32 39 4 C39.66 4.33 40.32 4.66 41 5 C40.67 5.66 40.34 6.32 40 7 C40.66 7.33 41.32 7.66 42 8 C41.34 8 40.68 8 40 8 C40.01571045 9.38167358 40.01571045 9.38167358 40.03173828 10.79125977 C40.06630201 14.28591531 40.09112862 17.78038318 40.10986328 21.27514648 C40.1197769 22.77322294 40.13331185 24.27128085 40.15087891 25.76928711 C40.26812905 36.0424686 39.64792521 45.84770314 38 56 C40.475 55.505 40.475 55.505 43 55 C42.99476318 54.03175293 42.98952637 53.06350586 42.98413086 52.06591797 C42.965953 48.45411106 42.95452146 44.84230816 42.94506836 41.23046875 C42.94005728 39.67089151 42.93324663 38.11131892 42.92456055 36.55175781 C42.91235314 34.30272264 42.90673932 32.0537499 42.90234375 29.8046875 C42.89718246 29.1138205 42.89202118 28.42295349 42.88670349 27.71115112 C42.88624471 23.70084945 43.2264734 19.93454705 44 16 C46 18 46 18 46.13525391 21.62353516 C46.09288757 23.17903344 46.03921439 24.73424915 45.9765625 26.2890625 C45.93902359 27.51669815 45.93902359 27.51669815 45.90072632 28.76913452 C45.8184256 31.38817148 45.72187618 34.00646554 45.625 36.625 C45.56677066 38.39840696 45.50946717 40.17184458 45.453125 41.9453125 C45.31283201 46.29730379 45.15975672 50.64868148 45 55 C46.98 55 48.96 55 51 55 C51 55.99 51 56.98 51 58 C46.60510097 59.0468165 42.24457244 59.24887943 37.75 59.4375 C31.55731276 59.72992368 25.45806951 60.25119666 19.3125 61.0625 C11.50328008 62.08212579 3.87124274 62.20623343 -4 62 C-3.83890747 61.42946899 -3.67781494 60.85893799 -3.51184082 60.27111816 C-2.99964659 57.99843185 -2.84976754 55.98798292 -2.81054688 53.66210938 C-2.79382935 52.81442993 -2.77711182 51.96675049 -2.7598877 51.09338379 C-2.74631226 50.18600464 -2.73273682 49.27862549 -2.71875 48.34375 C-2.70034058 47.40446655 -2.68193115 46.46518311 -2.66296387 45.49743652 C-2.60429022 42.49835381 -2.55143709 39.49921504 -2.5 36.5 C-2.43229046 32.55196429 -2.35862576 28.60410678 -2.28125 24.65625 C-2.26767456 23.74887085 -2.25409912 22.8414917 -2.2401123 21.90661621 C-2.22339478 21.05893677 -2.20667725 20.21125732 -2.18945312 19.33789062 C-2.17692505 18.59494751 -2.16439697 17.85200439 -2.15148926 17.08654785 C-1.99686854 14.95686856 -1.57925527 13.05151096 -1 11 C-1.66 10.67 -2.32 10.34 -3 10 C-2.34 10 -1.68 10 -1 10 C-1.01160156 9.36191406 -1.02320313 8.72382812 -1.03515625 8.06640625 C-1.04869141 6.82697266 -1.04869141 6.82697266 -1.0625 5.5625 C-1.07410156 4.73878906 -1.08570313 3.91507813 -1.09765625 3.06640625 C-1 1 -1 1 0 0 Z " fill="#BA9D1E" transform="translate(50,39)"/>
<path d="M0 0 C7.18987257 -0.0760222 14.3796416 -0.12858815 21.56982422 -0.16479492 C24.01615268 -0.1798877 26.46245407 -0.20036402 28.90869141 -0.22631836 C32.42357057 -0.26267918 35.93809218 -0.27972161 39.453125 -0.29296875 C40.5480426 -0.30845261 41.64296021 -0.32393646 42.77105713 -0.33988953 C43.79181335 -0.34011612 44.81256958 -0.34034271 45.86425781 -0.34057617 C47.20994843 -0.35056892 47.20994843 -0.35056892 48.58282471 -0.36076355 C51.45975343 0.06861823 52.84184459 1.09930675 55 3 C52.11604263 4.44197868 49.17569521 4.58833581 46 5 C46 4.34 46 3.68 46 3 C32.14 3 18.28 3 4 3 C3.71150983 16.7458812 3.71150983 16.7458812 3.43188477 30.49194336 C3.39370933 32.23291715 3.35523587 33.97388443 3.31640625 35.71484375 C3.29993042 36.59724731 3.28345459 37.47965088 3.26647949 38.38879395 C3.13700904 43.98238282 2.69135319 49.44703147 2 55 C2.99 55 3.98 55 5 55 C4.98839844 54.29101562 4.97679687 53.58203125 4.96484375 52.8515625 C4.89267245 44.33534868 5.06957192 35.82493398 5.3125 27.3125 C5.33497803 26.15379395 5.35745605 24.99508789 5.38061523 23.80126953 C5.41614502 22.7079834 5.4516748 21.61469727 5.48828125 20.48828125 C5.51446533 19.50384033 5.54064941 18.51939941 5.56762695 17.50512695 C6.05788631 14.66461239 6.77144535 13.75638126 9 12 C9.06822677 22.49270826 8.87008547 32.95215896 8.5 43.4375 C8.45159165 44.86262237 8.40341366 46.28775259 8.35546875 47.71289062 C8.23961786 51.14202105 8.12070875 54.57103671 8 58 C9.65 58 11.3 58 13 58 C13.33 58.99 13.66 59.98 14 61 C8.8024279 61.17922662 4.88723244 61.02641345 0 59 C-1.66843466 57.33156534 -1.20731623 55.26890254 -1.28125 52.9765625 C-1.33732422 51.44515625 -1.33732422 51.44515625 -1.39453125 49.8828125 C-1.42933594 48.80773437 -1.46414062 47.73265625 -1.5 46.625 C-1.56887331 44.51288511 -1.64161769 42.40089191 -1.71875 40.2890625 C-1.74904297 39.34756348 -1.77933594 38.40606445 -1.81054688 37.43603516 C-1.91208755 34.86087445 -1.91208755 34.86087445 -3 32 C-2.34 32 -1.68 32 -1 32 C-1.00523682 31.38592285 -1.01047363 30.7718457 -1.01586914 30.13916016 C-1.03692129 27.30111759 -1.04974863 24.46309154 -1.0625 21.625 C-1.07087891 20.65949219 -1.07925781 19.69398437 -1.08789062 18.69921875 C-1.09111328 17.73886719 -1.09433594 16.77851562 -1.09765625 15.7890625 C-1.10289307 14.91975098 -1.10812988 14.05043945 -1.11352539 13.15478516 C-0.9549254 8.74741079 -0.47568059 4.3830304 0 0 Z " fill="#B99C1D" transform="translate(3,33)"/>
<path d="M0 0 C2.52645954 0.05077281 5.01420685 0.16747026 7.53344727 0.33789062 C8.29837525 0.38664589 9.06330324 0.43540115 9.85141087 0.48563385 C17.74097494 1.01051966 25.60121061 1.77538442 33.46484375 2.59375 C34.96031086 2.74707546 36.45579984 2.9001878 37.9513092 3.05310059 C41.04290764 3.37006561 44.134219 3.68966105 47.2253418 4.01123047 C51.18911026 4.42334367 55.15356227 4.82842998 59.11824703 5.23162079 C62.18706861 5.54449732 65.25549973 5.86107331 68.32382393 6.17878723 C69.78736961 6.32986468 71.25103722 6.47976584 72.71482658 6.62846375 C74.7437859 6.83511197 76.77217887 7.04729858 78.80053711 7.25976562 C80.52898109 7.43844177 80.52898109 7.43844177 82.29234314 7.62072754 C85 8 85 8 87 9 C86.67 10.65 86.34 12.3 86 14 C67.10164549 13.0438938 48.31848757 11.8697423 29.546875 9.42578125 C28.83394287 9.33353271 28.12101074 9.24128418 27.38647461 9.14624023 C25.44055745 8.89174771 23.49562842 8.62973177 21.55078125 8.3671875 C18.00046381 7.93722766 18.00046381 7.93722766 14.4140625 8.0078125 C11.14524609 8.00033237 8.26215233 7.63203009 5.0625 7 C4.10472656 6.814375 3.14695312 6.62875 2.16015625 6.4375 C1.09087891 6.2209375 1.09087891 6.2209375 0 6 C-0.38218767 4.34385343 -0.71395102 2.67542976 -1 1 C-0.67 0.67 -0.34 0.34 0 0 Z " fill="#B59E30" transform="translate(9,99)"/>
<path d="M0 0 C3.6473126 0.97371292 7.29257849 1.95487773 10.9375 2.9375 C12.49887695 3.35418945 12.49887695 3.35418945 14.09179688 3.77929688 C15.08115234 4.04677734 16.07050781 4.31425781 17.08984375 4.58984375 C18.46450806 4.95903931 18.46450806 4.95903931 19.86694336 5.33569336 C22 6 22 6 23 7 C23.10507339 9.69791385 23.14015112 12.36424718 23.125 15.0625 C23.12306641 15.88854736 23.12113281 16.71459473 23.11914062 17.56567383 C23.04723866 28.38592133 22.5216533 39.19372982 22 50 C19.36 50.33 16.72 50.66 14 51 C14.33 50.01 14.66 49.02 15 48 C15.99 48 16.98 48 18 48 C18.66 35.46 19.32 22.92 20 10 C16.7 10 13.4 10 10 10 C9.93941406 11.16917969 9.87882812 12.33835937 9.81640625 13.54296875 C9.73195966 15.09115614 9.64731375 16.63933268 9.5625 18.1875 C9.52318359 18.95642578 9.48386719 19.72535156 9.44335938 20.51757812 C9.22492966 24.43251075 8.91307892 28.17120688 8 32 C7.34 32 6.68 32 6 32 C6 23.75 6 15.5 6 7 C5.01 7 4.02 7 3 7 C2.34 19.21 1.68 31.42 1 44 C-0.485 44.495 -0.485 44.495 -2 45 C-2.19350491 40.42892458 -2.37201718 35.85759033 -2.53710938 31.28540039 C-2.59523985 29.73250936 -2.65734981 28.17976168 -2.72363281 26.62719727 C-2.81861145 24.38584531 -2.89891073 22.14435505 -2.9765625 19.90234375 C-3.00875885 19.21663803 -3.0409552 18.53093231 -3.0741272 17.82444763 C-3.21631669 13.17106045 -2.41486963 9.41310758 -1 5 C-0.64628502 3.33753959 -0.30404678 1.67225729 0 0 Z " fill="#BA9D1D" transform="translate(102,45)"/>
<path d="M0 0 C0.94061279 0.04310303 1.88122559 0.08620605 2.8503418 0.13061523 C9.674803 0.4936515 9.674803 0.4936515 11.9375 1.625 C11.6075 3.275 11.2775 4.925 10.9375 6.625 C8.12493719 6.65184312 5.31262759 6.67176188 2.5 6.6875 C1.69755859 6.69587891 0.89511719 6.70425781 0.06835938 6.71289062 C-1.97545221 6.7215143 -4.01933902 6.6772815 -6.0625 6.625 C-6.3925 6.295 -6.7225 5.965 -7.0625 5.625 C-9.41237262 5.38972227 -11.76806039 5.21113583 -14.125 5.0625 C-16.06052734 4.93681641 -16.06052734 4.93681641 -18.03515625 4.80859375 C-19.53369141 4.71771484 -19.53369141 4.71771484 -21.0625 4.625 C-21.3925 3.305 -21.7225 1.985 -22.0625 0.625 C-14.67888131 -0.49897006 -7.43260608 -0.35273171 0 0 Z " fill="#B59C2A" transform="translate(110.0625,100.375)"/>
<path d="M0 0 C1.05445313 -0.00515625 2.10890625 -0.0103125 3.1953125 -0.015625 C5.875 0.25 5.875 0.25 7.875 2.25 C5.81577598 4.30922402 1.65791876 3.66427579 -1.1875 3.8125 C-2.32541992 3.87727539 -2.32541992 3.87727539 -3.48632812 3.94335938 C-5.36565438 4.04973633 -7.24530244 4.15039934 -9.125 4.25 C-9.125 5.57 -9.125 6.89 -9.125 8.25 C-11 10.3125 -11 10.3125 -13.125 12.25 C-14.115 13.735 -14.115 13.735 -15.125 15.25 C-17.11328125 15.65625 -17.11328125 15.65625 -19.4375 15.75 C-23.45323153 16.06483335 -25.77424563 16.92308724 -29.125 19.25 C-30.77869357 19.94822617 -32.44227014 20.62498605 -34.125 21.25 C-32.71945995 16.77782712 -30.8586914 14.10984873 -27.125 11.25 C-24.76231775 10.72677625 -22.52893335 10.50430275 -20.11328125 10.390625 C-18.05038652 10.37227525 -18.05038652 10.37227525 -16.125 9.25 C-15.650625 8.404375 -15.17625 7.55875 -14.6875 6.6875 C-14.171875 5.883125 -13.65625 5.07875 -13.125 4.25 C-12.135 4.25 -11.145 4.25 -10.125 4.25 C-10.125 3.59 -10.125 2.93 -10.125 2.25 C-6.69875115 0.16445722 -3.97589184 -0.01953755 0 0 Z " fill="#B79B28" transform="translate(69.125,2.75)"/>
<path d="M0 0 C2.3431213 0.25561323 4.67843403 0.59270772 7 1 C7.33 1.66 7.66 2.32 8 3 C7.67 3.99 7.34 4.98 7 6 C6.98453739 7.48354153 7.03164202 8.96829574 7.12109375 10.44921875 C7.16943359 11.29677734 7.21777344 12.14433594 7.26757812 13.01757812 C7.32365234 13.89865234 7.37972656 14.77972656 7.4375 15.6875 C7.48970703 16.58017578 7.54191406 17.47285156 7.59570312 18.39257812 C7.7252818 20.5954156 7.86024246 22.79778873 8 25 C7.01 25 6.02 25 5 25 C5.33 34.57 5.66 44.14 6 54 C5.01 54 4.02 54 3 54 C2.67 38.82 2.34 23.64 2 8 C2.33 8 2.66 8 3 8 C3.33 6.35 3.66 4.7 4 3 C2.35 2.67 0.7 2.34 -1 2 C-0.67 1.34 -0.34 0.68 0 0 Z " fill="#BAA019" transform="translate(60,36)"/>
<path d="M0 0 C5.75 -0.125 5.75 -0.125 8 1 C8.11114233 13.05276854 7.94014291 24.97960136 7 37 C6.67 37 6.34 37 6 37 C6 25.78 6 14.56 6 3 C5.67 14.22 5.34 25.44 5 37 C4.67 37 4.34 37 4 37 C3.17961409 30.598406 2.87245487 24.38697499 2.9375 17.9375 C2.94201172 17.07189453 2.94652344 16.20628906 2.95117188 15.31445312 C2.96280087 13.20960461 2.98072927 11.10479242 3 9 C2.34 9 1.68 9 1 9 C1 16.59 1 24.18 1 32 C0.67 32 0.34 32 0 32 C-1.25763948 21.22299705 -0.74080644 10.79298003 0 0 Z " fill="#B39B36" transform="translate(114,54)"/>
<path d="M0 0 C1.37478516 0.01740234 1.37478516 0.01740234 2.77734375 0.03515625 C3.69644531 0.04417969 4.61554687 0.05320312 5.5625 0.0625 C6.27277344 0.07410156 6.98304687 0.08570312 7.71484375 0.09765625 C7.71484375 0.75765625 7.71484375 1.41765625 7.71484375 2.09765625 C9.81751435 2.46059939 11.92205432 2.81272597 14.02734375 3.16015625 C15.19910156 3.35738281 16.37085938 3.55460937 17.578125 3.7578125 C20.73996251 4.32071323 20.73996251 4.32071323 23.71484375 3.09765625 C25.90234375 3.53515625 25.90234375 3.53515625 27.71484375 4.09765625 C27.71484375 4.75765625 27.71484375 5.41765625 27.71484375 6.09765625 C29.03484375 5.76765625 30.35484375 5.43765625 31.71484375 5.09765625 C31.71484375 5.75765625 31.71484375 6.41765625 31.71484375 7.09765625 C30.66683594 7.08605469 29.61882813 7.07445312 28.5390625 7.0625 C27.16015803 7.0531197 25.78125164 7.04401975 24.40234375 7.03515625 C23.71205078 7.02677734 23.02175781 7.01839844 22.31054688 7.00976562 C19.16654125 6.99457719 16.72064356 7.09572298 13.71484375 8.09765625 C11.79577458 8.18032111 9.87394901 8.20506288 7.953125 8.1953125 C6.83486328 8.19208984 5.71660156 8.18886719 4.56445312 8.18554688 C3.39720703 8.17716797 2.22996094 8.16878906 1.02734375 8.16015625 C-0.15150391 8.15564453 -1.33035156 8.15113281 -2.54492188 8.14648438 C-5.45838414 8.13468898 -8.37174488 8.11822895 -11.28515625 8.09765625 C-11.28515625 7.76765625 -11.28515625 7.43765625 -11.28515625 7.09765625 C-6.83015625 6.60265625 -6.83015625 6.60265625 -2.28515625 6.09765625 C-2.56359375 4.89109375 -2.56359375 4.89109375 -2.84765625 3.66015625 C-2.99203125 2.81453125 -3.13640625 1.96890625 -3.28515625 1.09765625 C-2.28515625 0.09765625 -2.28515625 0.09765625 0 0 Z " fill="#AE993A" transform="translate(14.28515625,23.90234375)"/>
<path d="M0 0 C4.44882412 4.39861166 4.44882412 4.39861166 6 7 C5.67 7.99 5.34 8.98 5 10 C4.505 8.515 4.505 8.515 4 7 C3.01 6.67 2.02 6.34 1 6 C0.525625 5.195625 0.05125 4.39125 -0.4375 3.5625 C-2.09552981 0.84333111 -3.08436939 0.10592885 -6 -1 C-5.505 0.98 -5.505 0.98 -5 3 C-5.94875 2.649375 -6.8975 2.29875 -7.875 1.9375 C-13.53953857 0.29593984 -19.47559937 1.15853312 -25 3 C-25 2.01 -25 1.02 -25 0 C-19.72 -0.66 -14.44 -1.32 -9 -2 C-10.06930652 -3.29258972 -10.06930652 -3.29258972 -12.58203125 -3.1328125 C-14.18111328 -3.12894531 -14.18111328 -3.12894531 -15.8125 -3.125 C-16.87082031 -3.12757812 -17.92914063 -3.13015625 -19.01953125 -3.1328125 C-21.53689017 -3.02063661 -23.60423255 -2.7309121 -26 -2 C-26 -1.34 -26 -0.68 -26 0 C-26.61875 0.2475 -27.2375 0.495 -27.875 0.75 C-30.37818306 2.22246063 -30.83045281 3.41028837 -32 6 C-34.40545638 7.20272819 -35.94996953 7.10071472 -38.625 7.0625 C-39.85089844 7.04896484 -39.85089844 7.04896484 -41.1015625 7.03515625 C-42.04128906 7.01775391 -42.04128906 7.01775391 -43 7 C-39.78360346 5.25434889 -37.67986596 4.795563 -34 5 C-33.773125 4.4225 -33.54625 3.845 -33.3125 3.25 C-31.01362981 -0.69092033 -27.23480803 -3.3808087 -23 -5 C-14.72242112 -6.98661893 -6.55821182 -5.51485994 0 0 Z " fill="#B8A43E" transform="translate(85,7)"/>
<path d="M0 0 C4.97758958 1.56701894 7.40347464 4.89138789 10.375 9.0625 C11.8125 12.0625 11.8125 12.0625 12.375 14.0625 C14.685 14.3925 16.995 14.7225 19.375 15.0625 C19.375 15.7225 19.375 16.3825 19.375 17.0625 C13.105 17.0625 6.835 17.0625 0.375 17.0625 C0.375 16.0725 0.375 15.0825 0.375 14.0625 C2.685 14.0625 4.995 14.0625 7.375 14.0625 C6.385 10.7625 5.395 7.4625 4.375 4.0625 C3.42625 3.93875 2.4775 3.815 1.5 3.6875 C-1.625 3.0625 -1.625 3.0625 -3.625 1.0625 C-2.625 0.0625 -2.625 0.0625 0 0 Z " fill="#B99C18" transform="translate(97.625,21.9375)"/>
<path d="M0 0 C0.66 0 1.32 0 2 0 C1.90768085 6.62053618 1.80036848 13.24070747 1.68261719 19.86083984 C1.64432843 22.11306236 1.60947539 24.365346 1.578125 26.61767578 C1.53247263 29.85471447 1.47447785 33.09133236 1.4140625 36.328125 C1.39673569 37.83925873 1.39673569 37.83925873 1.37905884 39.38092041 C1.35918915 40.32159363 1.33931946 41.26226685 1.31884766 42.23144531 C1.30552399 43.05751282 1.29220032 43.88358032 1.2784729 44.73468018 C1 47 1 47 -1 51 C3.95 51 8.9 51 14 51 C14 51.33 14 51.66 14 52 C11.45826023 52.02716824 8.91681585 52.04691969 6.375 52.0625 C5.30572266 52.07506836 5.30572266 52.07506836 4.21484375 52.08789062 C0.02655562 52.10710296 -3.8728462 51.8267327 -8 51 C-4.25 49 -4.25 49 -2 49 C-1.19977344 38.35412874 -0.90004848 27.78635489 -1.03710938 17.10913086 C-1.08974832 11.31125502 -0.75420405 5.75080585 0 0 Z " fill="#AE9630" transform="translate(47,50)"/>
<path d="M0 0 C6.93 0 13.86 0 21 0 C21 0.99 21 1.98 21 3 C22.918125 2.938125 22.918125 2.938125 24.875 2.875 C27.0546875 2.8046875 27.0546875 2.8046875 29 3 C29.66 3.66 30.32 4.32 31 5 C26.92450059 4.90638035 22.84953664 4.80026839 18.7746582 4.68261719 C17.38868093 4.6443565 16.00260535 4.60949844 14.61645508 4.578125 C12.6229836 4.53241301 10.62983086 4.47341075 8.63671875 4.4140625 C7.43748779 4.3826416 6.23825684 4.3512207 5.00268555 4.31884766 C2 4 2 4 -1 2 C-0.67 1.34 -0.34 0.68 0 0 Z " fill="#BB9E1D" transform="translate(45,104)"/>
<path d="M0 0 C0.66 0.99 1.32 1.98 2 3 C4.19454681 3.57993699 4.19454681 3.57993699 6.625 3.6875 C7.44226563 3.75324219 8.25953125 3.81898437 9.1015625 3.88671875 C9.72804688 3.92410156 10.35453125 3.96148437 11 4 C11.38218767 5.65614657 11.71395102 7.32457024 12 9 C9.64044489 11.35955511 3.73247174 10.18542405 0.5625 10.1875 C-0.41783203 10.19974609 -1.39816406 10.21199219 -2.40820312 10.22460938 C-3.34470703 10.22654297 -4.28121094 10.22847656 -5.24609375 10.23046875 C-6.10904053 10.23457764 -6.9719873 10.23868652 -7.86108398 10.24291992 C-10 10 -10 10 -12 8 C-11.625 5.875 -11.625 5.875 -11 4 C-8.69 4 -6.38 4 -4 4 C-4 4.33 -4 4.66 -4 5 C-5.98 5 -7.96 5 -10 5 C-10 5.99 -10 6.98 -10 8 C-3.73 8 2.54 8 9 8 C9 7.34 9 6.68 9 6 C7.329375 6.061875 7.329375 6.061875 5.625 6.125 C2 6 2 6 0 4 C0 2.68 0 1.36 0 0 Z " fill="#B5A146" transform="translate(108,31)"/>
<path d="M0 0 C-0.33 0.66 -0.66 1.32 -1 2 C-1.99 2.33 -2.98 2.66 -4 3 C-5.41850519 5.83701038 -5.2011796 8.31477987 -5.28125 11.484375 C-5.29965942 12.13641907 -5.31806885 12.78846313 -5.33703613 13.46026611 C-5.39579337 15.55675166 -5.4484148 17.65332661 -5.5 19.75 C-5.7565839 29.8622831 -6.1855079 39.91374106 -7 50 C-7.33 50 -7.66 50 -8 50 C-8.02519685 45.59326518 -8.04308799 41.18657133 -8.05493164 36.77978516 C-8.05988214 35.28856677 -8.06664426 33.79735301 -8.07543945 32.30615234 C-8.12205486 24.18410403 -8.05041629 16.08114168 -7.62109375 7.96875 C-7.55204834 6.65326172 -7.48300293 5.33777344 -7.41186523 3.98242188 C-7.27594971 2.99822266 -7.14003418 2.01402344 -7 1 C-4.53721199 -0.231394 -2.7204945 -0.07159196 0 0 Z " fill="#B8A140" transform="translate(15,38)"/>
<path d="M0 0 C1.85772162 0.08984301 3.71247985 0.24611861 5.5625 0.4375 C7.08037109 0.59025391 7.08037109 0.59025391 8.62890625 0.74609375 C9.80259766 0.87177734 9.80259766 0.87177734 11 1 C11.38218767 2.65614657 11.71395102 4.32457024 12 6 C10.34346314 7.65653686 8.39349204 7.17106165 6.125 7.1875 C5.24070312 7.20167969 4.35640625 7.21585937 3.4453125 7.23046875 C1 7 1 7 -2 5 C-1.125 1.125 -1.125 1.125 0 0 Z " fill="#AE9B3D" transform="translate(99,107)"/>
<path d="M0 0 C13.53 0 27.06 0 41 0 C41 0.33 41 0.66 41 1 C33.41 1.33 25.82 1.66 18 2 C24.93 2.33 31.86 2.66 39 3 C38.67 3.66 38.34 4.32 38 5 C29.75 4.67 21.5 4.34 13 4 C13 3.34 13 2.68 13 2 C8.71 1.67 4.42 1.34 0 1 C0 0.67 0 0.34 0 0 Z " fill="#AE9A4C" transform="translate(7,36)"/>
<path d="M0 0 C1.05445312 -0.00515625 2.10890625 -0.0103125 3.1953125 -0.015625 C5.875 0.25 5.875 0.25 7.875 2.25 C5.81577598 4.30922402 1.65791876 3.66427579 -1.1875 3.8125 C-2.32541992 3.87727539 -2.32541992 3.87727539 -3.48632812 3.94335938 C-5.36565438 4.04973633 -7.24530244 4.15039934 -9.125 4.25 C-9.125 5.57 -9.125 6.89 -9.125 8.25 C-11.105 8.58 -13.085 8.91 -15.125 9.25 C-14.795 7.93 -14.465 6.61 -14.125 5.25 C-12.805 4.92 -11.485 4.59 -10.125 4.25 C-10.125 3.59 -10.125 2.93 -10.125 2.25 C-6.69875115 0.16445722 -3.97589184 -0.01953755 0 0 Z " fill="#B99E1B" transform="translate(69.125,2.75)"/>
<path d="M0 0 C0.66 0 1.32 0 2 0 C2.02684312 2.81256281 2.04676188 5.62487241 2.0625 8.4375 C2.07087891 9.23994141 2.07925781 10.04238281 2.08789062 10.86914062 C2.0965143 12.91295221 2.0522815 14.95683902 2 17 C1 18 1 18 -1.5625 18.0625 C-2.366875 18.041875 -3.17125 18.02125 -4 18 C-4 17.01 -4 16.02 -4 15 C-3.34 14.67 -2.68 14.34 -2 14 C-1.56845773 11.25063695 -1.56845773 11.25063695 -1.4375 8.0625 C-1.09446694 2.18893387 -1.09446694 2.18893387 0 0 Z " fill="#BA9D1B" transform="translate(108,78)"/>
<path d="M0 0 C0.66 0 1.32 0 2 0 C2.33 7.92 2.66 15.84 3 24 C2.01 24.33 1.02 24.66 0 25 C-0.66 24.34 -1.32 23.68 -2 23 C-1.34 23 -0.68 23 0 23 C0 15.41 0 7.82 0 0 Z " fill="#BA9F17" transform="translate(115,63)"/>
<path d="M0 0 C0.68707031 0.08378906 1.37414062 0.16757812 2.08203125 0.25390625 C3.43361328 0.40666016 3.43361328 0.40666016 4.8125 0.5625 C5.70582031 0.66691406 6.59914063 0.77132813 7.51953125 0.87890625 C10.13375572 1.15658709 10.13375572 1.15658709 13 0 C15.1875 0.4375 15.1875 0.4375 17 1 C17 1.66 17 2.32 17 3 C18.32 2.67 19.64 2.34 21 2 C21 2.66 21 3.32 21 4 C18.64551325 4.05454409 16.29232125 4.0939279 13.9375 4.125 C12.62652344 4.14820313 11.31554687 4.17140625 9.96484375 4.1953125 C5.88175701 3.99417522 2.85000947 3.27165462 -1 2 C-0.67 1.34 -0.34 0.68 0 0 Z " fill="#B99B16" transform="translate(25,27)"/>
<path d="M0 0 C2.70108504 0.090916 5.36930311 0.23740766 8.0625 0.4375 C9.20041992 0.51581055 9.20041992 0.51581055 10.36132812 0.59570312 C12.24121722 0.72575835 14.12065685 0.86228038 16 1 C16 1.66 16 2.32 16 3 C10.06 3.33 4.12 3.66 -2 4 C-1 1 -1 1 0 0 Z " fill="#C3A729" transform="translate(30,30)"/>
<path d="M0 0 C3.63515926 1.00976646 4.95669389 1.94643718 7.375 4.9375 C7.91125 5.948125 8.4475 6.95875 9 8 C8.67 8.99 8.34 9.98 8 11 C1.29540481 5.9059081 1.29540481 5.9059081 0.0625 2.125 C0.041875 1.42375 0.02125 0.7225 0 0 Z " fill="#BA9F22" transform="translate(79,6)"/>
<path d="M0 0 C0.33 1.32 0.66 2.64 1 4 C-3.29 4 -7.58 4 -12 4 C-12 3.01 -12 2.02 -12 1 C-6.06 0.505 -6.06 0.505 0 0 Z " fill="#B79B18" transform="translate(93,107)"/>
<path d="M0 0 C6.93 0.495 6.93 0.495 14 1 C14 1.33 14 1.66 14 2 C10.37 2 6.74 2 3 2 C3.33 2.99 3.66 3.98 4 5 C10.93 5.495 10.93 5.495 18 6 C18 6.33 18 6.66 18 7 C12.72 7 7.44 7 2 7 C1.34 4.69 0.68 2.38 0 0 Z " fill="#AC9633" transform="translate(85,99)"/>
<path d="M0 0 C1.77007714 -0.08114106 3.54122098 -0.13925505 5.3125 -0.1875 C6.29863281 -0.22230469 7.28476562 -0.25710937 8.30078125 -0.29296875 C11 0 11 0 12.85546875 1.51171875 C13.23316406 2.00285156 13.61085938 2.49398437 14 3 C13.67 3.33 13.34 3.66 13 4 C11.1843265 3.93588312 9.3709514 3.79902523 7.5625 3.625 C6.57378906 3.53476563 5.58507812 3.44453125 4.56640625 3.3515625 C2 3 2 3 0 2 C0 1.34 0 0.68 0 0 Z " fill="#BB9B18" transform="translate(24,94)"/>
<path d="M0 0 C0.66 0 1.32 0 2 0 C2.17707265 10.03411669 1.62277469 19.99112106 1 30 C0.67 30 0.34 30 0 30 C-0.19977261 26.68812351 -0.38251777 23.37550624 -0.5625 20.0625 C-0.61857422 19.13630859 -0.67464844 18.21011719 -0.73242188 17.25585938 C-1.04292831 11.35623718 -0.81051594 5.8537262 0 0 Z " fill="#B09D47" transform="translate(47,50)"/>
<path d="M0 0 C3.3 0.66 6.6 1.32 10 2 C9.67 2.66 9.34 3.32 9 4 C6.49609375 4.4140625 6.49609375 4.4140625 3.4375 4.625 C2.42558594 4.69976562 1.41367188 4.77453125 0.37109375 4.8515625 C-0.41136719 4.90054688 -1.19382812 4.94953125 -2 5 C-2 5.66 -2 6.32 -2 7 C-2.66 7 -3.32 7 -4 7 C-4 5.68 -4 4.36 -4 3 C-3.01 3 -2.02 3 -1 3 C-0.67 2.01 -0.34 1.02 0 0 Z " fill="#B69E2E" transform="translate(78,39)"/>
<path d="M0 0 C0.33 0.99 0.66 1.98 1 3 C1.67546875 2.98839844 2.3509375 2.97679687 3.046875 2.96484375 C4.38492188 2.95130859 4.38492188 2.95130859 5.75 2.9375 C7.07257813 2.92009766 7.07257813 2.92009766 8.421875 2.90234375 C10.84703545 2.99420589 12.74481925 3.10681025 15 4 C16.8125 7.375 16.8125 7.375 18 11 C17.67 11.99 17.34 12.98 17 14 C16.5875 13.071875 16.175 12.14375 15.75 11.1875 C13.63365195 7.25674891 13.63365195 7.25674891 10 5 C6.98228616 4.76505688 4.01968406 4.82578746 1 5 C0.67 3.35 0.34 1.7 0 0 Z " fill="#B7A141" transform="translate(87,22)"/>
<path d="M0 0 C2.15546298 3.23319447 2.68074747 5.16896958 3 9 C2.01 10.485 2.01 10.485 1 12 C0.34 12 -0.32 12 -1 12 C-1.02687279 10.18757948 -1.04633715 8.37504767 -1.0625 6.5625 C-1.07410156 5.55316406 -1.08570312 4.54382813 -1.09765625 3.50390625 C-1 1 -1 1 0 0 Z " fill="#C1A418" transform="translate(87,71)"/>
<path d="M0 0 C2.64 0 5.28 0 8 0 C8 0.66 8 1.32 8 2 C8.66 2.33 9.32 2.66 10 3 C6.37 3.66 2.74 4.32 -1 5 C-0.67 3.35 -0.34 1.7 0 0 Z " fill="#BDA221" transform="translate(13,25)"/>
<path d="M0 0 C0.66 0 1.32 0 2 0 C2.05386629 2.12472576 2.09273071 4.24983652 2.125 6.375 C2.14820312 7.55835938 2.17140625 8.74171875 2.1953125 9.9609375 C2 13 2 13 0 15 C-2.27571116 5.98468271 -2.27571116 5.98468271 -1.125 1.875 C-0.75375 1.25625 -0.3825 0.6375 0 0 Z " fill="#C2A32C" transform="translate(96,49)"/>
<path d="M0 0 C0.66 0 1.32 0 2 0 C1.67 1.65 1.34 3.3 1 5 C-5.27 4.67 -11.54 4.34 -18 4 C-18 3.67 -18 3.34 -18 3 C-12.06 3 -6.12 3 0 3 C0 2.01 0 1.02 0 0 Z " fill="#B09E42" transform="translate(94,108)"/>
<path d="M0 0 C4.95 0.99 4.95 0.99 10 2 C10 2.99 10 3.98 10 5 C6.7 5 3.4 5 0 5 C0 3.35 0 1.7 0 0 Z " fill="#BCA218" transform="translate(99,107)"/>
<path d="M0 0 C0.66 0.33 1.32 0.66 2 1 C3.59262066 1.15175549 5.19064856 1.24900325 6.7890625 1.31640625 C7.73007812 1.35830078 8.67109375 1.40019531 9.640625 1.44335938 C10.62546875 1.48267578 11.6103125 1.52199219 12.625 1.5625 C13.61757813 1.60568359 14.61015625 1.64886719 15.6328125 1.69335938 C18.08839838 1.79961069 20.54408703 1.90164964 23 2 C22.67 2.66 22.34 3.32 22 4 C13.75 3.67 5.5 3.34 -3 3 C-3 2.34 -3 1.68 -3 1 C-2.01 0.67 -1.02 0.34 0 0 Z " fill="#B9AA51" transform="translate(23,37)"/>
<path d="M0 0 C3.45900478 0.1095693 6.91689109 0.24026848 10.375 0.375 C11.35984375 0.4059375 12.3446875 0.436875 13.359375 0.46875 C14.77089844 0.52675781 14.77089844 0.52675781 16.2109375 0.5859375 C17.08024902 0.6173584 17.94956055 0.6487793 18.84521484 0.68115234 C21 1 21 1 23 3 C18.81636307 4.39454564 15.26573598 3.68495949 10.9375 3.1875 C10.10927734 3.10435547 9.28105469 3.02121094 8.42773438 2.93554688 C7.63560547 2.84724609 6.84347656 2.75894531 6.02734375 2.66796875 C5.30281006 2.58828857 4.57827637 2.5086084 3.83178711 2.42651367 C2 2 2 2 0 0 Z " fill="#BFAF50" transform="translate(41,107)"/>
<path d="M0 0 C0.66 0.33 1.32 0.66 2 1 C1.54625 1.4125 1.0925 1.825 0.625 2.25 C-1.0914384 3.93416435 -1.0914384 3.93416435 -2.0625 6.125 C-3 8 -3 8 -5 9 C-6.54023996 9.06950541 -8.08334988 9.08452357 -9.625 9.0625 C-10.85089844 9.04896484 -10.85089844 9.04896484 -12.1015625 9.03515625 C-13.04128906 9.01775391 -13.04128906 9.01775391 -14 9 C-10.78360346 7.25434889 -8.67986596 6.795563 -5 7 C-4.731875 6.401875 -4.46375 5.80375 -4.1875 5.1875 C-3.01506533 3.02775192 -1.80630718 1.64209744 0 0 Z " fill="#C4AF55" transform="translate(56,5)"/>
<path d="M0 0 C5.75762166 1.08896667 11.39247819 2.29336293 17 4 C17 4.33 17 4.66 17 5 C14.03 5 11.06 5 8 5 C8 4.34 8 3.68 8 3 C7.05125 2.87625 6.1025 2.7525 5.125 2.625 C2 2 2 2 0 0 Z " fill="#B59E39" transform="translate(103,46)"/>
<path d="M0 0 C2.475 0.495 2.475 0.495 5 1 C5 3.31 5 5.62 5 8 C4.67 8 4.34 8 4 8 C4 6.02 4 4.04 4 2 C3.34 2 2.68 2 2 2 C2 3.98 2 5.96 2 8 C1.34 8 0.68 8 0 8 C0 5.36 0 2.72 0 0 Z " fill="#B7A036" transform="translate(59,38)"/>
<path d="M0 0 C2.3431213 0.25561323 4.67843403 0.59270772 7 1 C7.33 1.66 7.66 2.32 8 3 C7.01 4.485 7.01 4.485 6 6 C5.34 6 4.68 6 4 6 C4 5.01 4 4.02 4 3 C2.35 2.67 0.7 2.34 -1 2 C-0.67 1.34 -0.34 0.68 0 0 Z " fill="#BB9A14" transform="translate(60,36)"/>
<path d="M0 0 C1.12894876 0.93274109 2.25300876 1.87140122 3.375 2.8125 C4.00148438 3.33457031 4.62796875 3.85664063 5.2734375 4.39453125 C7 6 7 6 9 9 C8.67 9.99 8.34 10.98 8 12 C7.67 11.01 7.34 10.02 7 9 C6.01 8.67 5.02 8.34 4 8 C2.19032651 5.35509259 1.01527629 3.04582887 0 0 Z " fill="#C1AA48" transform="translate(82,5)"/>
<path d="M0 0 C2.97 0 5.94 0 9 0 C9.33 1.32 9.66 2.64 10 4 C7.69 3.67 5.38 3.34 3 3 C3 2.34 3 1.68 3 1 C2.01 0.67 1.02 0.34 0 0 Z " fill="#BE9B14" transform="translate(111,51)"/>
<path d="M0 0 C4.95 0.99 4.95 0.99 10 2 C10 2.66 10 3.32 10 4 C8.02 4.66 6.04 5.32 4 6 C4 4.68 4 3.36 4 2 C2.68 1.67 1.36 1.34 0 1 C0 0.67 0 0.34 0 0 Z " fill="#BAA027" transform="translate(104,50)"/>
<path d="M0 0 C0.33 1.32 0.66 2.64 1 4 C-2.3 3.67 -5.6 3.34 -9 3 C-9 2.34 -9 1.68 -9 1 C-4.545 0.505 -4.545 0.505 0 0 Z " fill="#BDA123" transform="translate(93,107)"/>
<path d="M0 0 C-0.33 0.66 -0.66 1.32 -1 2 C-1.99 2.33 -2.98 2.66 -4 3 C-5.68538601 4.99665314 -5.68538601 4.99665314 -7 7 C-7 5.02 -7 3.04 -7 1 C-4.53721199 -0.231394 -2.7204945 -0.07159196 0 0 Z " fill="#B09E35" transform="translate(15,38)"/>
<path d="M0 0 C0.66 0 1.32 0 2 0 C2 2.64 2 5.28 2 8 C1.01 8 0.02 8 -1 8 C-0.67 5.36 -0.34 2.72 0 0 Z " fill="#B89C19" transform="translate(71,82)"/>
<path d="M0 0 C6.625 -0.25 6.625 -0.25 10 2 C3.375 3.125 3.375 3.125 0 2 C0 1.34 0 0.68 0 0 Z " fill="#C0A649" transform="translate(46,31)"/>
<path d="M0 0 C0.66 0 1.32 0 2 0 C1.67 2.64 1.34 5.28 1 8 C0.34 7.67 -0.32 7.34 -1 7 C-1.04254356 5.00045254 -1.04080783 2.99958364 -1 1 C-0.67 0.67 -0.34 0.34 0 0 Z " fill="#B89C17" transform="translate(50,39)"/>
<path d="M0 0 C2.475 0.495 2.475 0.495 5 1 C5.33 1.99 5.66 2.98 6 4 C4 4 2 4 0 4 C0 2.68 0 1.36 0 0 Z " fill="#C8B32F" transform="translate(42,26)"/>
<path d="" fill="#FFFFFF" transform="translate(0,0)"/>
<path d="" fill="#FFFFFF" transform="translate(0,0)"/>
<path d="" fill="#FFFFFF" transform="translate(0,0)"/>
<path d="" fill="#FFFFFF" transform="translate(0,0)"/>
<path d="" fill="#FFFFFF" transform="translate(0,0)"/>
<path d="" fill="#FFFFFF" transform="translate(0,0)"/>
<path d="" fill="#FFFFFF" transform="translate(0,0)"/>
<path d="" fill="#FFFFFF" transform="translate(0,0)"/>
<path d="" fill="#FFFFFF" transform="translate(0,0)"/>
<path d="" fill="#FFFFFF" transform="translate(0,0)"/>
<path d="" fill="#FFFFFF" transform="translate(0,0)"/>
<path d="" fill="#FFFFFF" transform="translate(0,0)"/>
<path d="" fill="#FFFFFF" transform="translate(0,0)"/>
<path d="" fill="#FFFFFF" transform="translate(0,0)"/>
<path d="" fill="#FFFFFF" transform="translate(0,0)"/>
<path d="" fill="#FFFFFF" transform="translate(0,0)"/>
<path d="" fill="#FFFFFF" transform="translate(0,0)"/>
<path d="" fill="#FFFFFF" transform="translate(0,0)"/>
<path d="" fill="#FFFFFF" transform="translate(0,0)"/>
<path d="" fill="#FFFFFF" transform="translate(0,0)"/>
<path d="" fill="#FFFFFF" transform="translate(0,0)"/>
<path d="" fill="#FFFFFF" transform="translate(0,0)"/>
<path d="" fill="#FFFFFF" transform="translate(0,0)"/>
<path d="" fill="#FFFFFF" transform="translate(0,0)"/>
<path d="" fill="#FFFFFF" transform="translate(0,0)"/>
<path d="" fill="#FFFFFF" transform="translate(0,0)"/>
<path d="" fill="#FFFFFF" transform="translate(0,0)"/>
<path d="" fill="#FFFFFF" transform="translate(0,0)"/>
<path d="" fill="#FFFFFF" transform="translate(0,0)"/>
<path d="" fill="#FFFFFF" transform="translate(0,0)"/>
<path d="" fill="#FFFFFF" transform="translate(0,0)"/>
</svg>
